<mxfile host="65bd71144e">
    <diagram id="LdakCsZ0Agmdaz14ocpm" name="Page-1">
        <mxGraphModel dx="950" dy="1413" grid="1" gridSize="10" guides="1" tooltips="1" connect="1" arrows="1" fold="1" page="1" pageScale="1" pageWidth="850" pageHeight="1100" math="0" shadow="0">
            <root>
                <mxCell id="0"/>
                <mxCell id="1" parent="0"/>
                <mxCell id="2" value="Video" style="swimlane;fontStyle=1;align=center;verticalAlign=top;childLayout=stackLayout;horizontal=1;startSize=26;horizontalStack=0;resizeParent=1;resizeParentMax=0;resizeLast=0;collapsible=1;marginBottom=0;" parent="1" vertex="1">
                    <mxGeometry x="160" y="80" width="160" height="316" as="geometry"/>
                </mxCell>
                <mxCell id="3" value="- id: string&#10;-  nombre: string&#10;- duración: string&#10;- genero: string&#10;- calificacion: float&#10;- fecha: string" style="text;strokeColor=none;fillColor=none;align=left;verticalAlign=top;spacingLeft=4;spacingRight=4;overflow=hidden;rotatable=0;points=[[0,0.5],[1,0.5]];portConstraint=eastwest;" parent="2" vertex="1">
                    <mxGeometry y="26" width="160" height="94" as="geometry"/>
                </mxCell>
                <mxCell id="4" value="" style="line;strokeWidth=1;fillColor=none;align=left;verticalAlign=middle;spacingTop=-1;spacingLeft=3;spacingRight=3;rotatable=0;labelPosition=right;points=[];portConstraint=eastwest;strokeColor=inherit;" parent="2" vertex="1">
                    <mxGeometry y="120" width="160" height="8" as="geometry"/>
                </mxCell>
                <mxCell id="5" value="+ Video()&#10;+ Video(string, string, string,&#10;string, float, string)&#10;+ setCalficacion(float): void&#10;method(type): type&#10;+ getId() : string&#10;+ getINombre() : string&#10;+ getIDuracion() : string&#10;+ getGenero() : string&#10;+ getCalificacion(): float&#10;+ getFecha(): string&#10;+ getInfo(): void" style="text;strokeColor=none;fillColor=none;align=left;verticalAlign=top;spacingLeft=4;spacingRight=4;overflow=hidden;rotatable=0;points=[[0,0.5],[1,0.5]];portConstraint=eastwest;fontStyle=0" parent="2" vertex="1">
                    <mxGeometry y="128" width="160" height="188" as="geometry"/>
                </mxCell>
                <mxCell id="10" value="Pelicula" style="swimlane;fontStyle=1;align=center;verticalAlign=top;childLayout=stackLayout;horizontal=1;startSize=26;horizontalStack=0;resizeParent=1;resizeParentMax=0;resizeLast=0;collapsible=1;marginBottom=0;" parent="1" vertex="1">
                    <mxGeometry x="425" y="94" width="160" height="118" as="geometry"/>
                </mxCell>
                <mxCell id="12" value="" style="line;strokeWidth=1;fillColor=none;align=left;verticalAlign=middle;spacingTop=-1;spacingLeft=3;spacingRight=3;rotatable=0;labelPosition=right;points=[];portConstraint=eastwest;strokeColor=inherit;" parent="10" vertex="1">
                    <mxGeometry y="26" width="160" height="24" as="geometry"/>
                </mxCell>
                <mxCell id="13" value="+ Pelicula(string, string, &#10;string, string, float, string)&#10;+ getInfo(): void" style="text;strokeColor=none;fillColor=none;align=left;verticalAlign=top;spacingLeft=4;spacingRight=4;overflow=hidden;rotatable=0;points=[[0,0.5],[1,0.5]];portConstraint=eastwest;fontStyle=0" parent="10" vertex="1">
                    <mxGeometry y="50" width="160" height="68" as="geometry"/>
                </mxCell>
                <mxCell id="14" value="" style="endArrow=open;endFill=1;endSize=12;html=1;exitX=0;exitY=0.5;exitDx=0;exitDy=0;entryX=1;entryY=0.5;entryDx=0;entryDy=0;" parent="1" source="10" target="3" edge="1">
                    <mxGeometry width="160" relative="1" as="geometry">
                        <mxPoint x="320" y="180" as="sourcePoint"/>
                        <mxPoint x="480" y="180" as="targetPoint"/>
                    </mxGeometry>
                </mxCell>
                <mxCell id="24" value="Plataforma" style="swimlane;fontStyle=1;align=center;verticalAlign=top;childLayout=stackLayout;horizontal=1;startSize=26;horizontalStack=0;resizeParent=1;resizeParentMax=0;resizeLast=0;collapsible=1;marginBottom=0;" vertex="1" parent="1">
                    <mxGeometry x="410" y="310" width="180" height="170" as="geometry"/>
                </mxCell>
                <mxCell id="25" value="- peliculas: vector&lt;Pelicula*&gt;" style="text;strokeColor=none;fillColor=none;align=left;verticalAlign=top;spacingLeft=4;spacingRight=4;overflow=hidden;rotatable=0;points=[[0,0.5],[1,0.5]];portConstraint=eastwest;" vertex="1" parent="24">
                    <mxGeometry y="26" width="180" height="34" as="geometry"/>
                </mxCell>
                <mxCell id="26" value="" style="line;strokeWidth=1;fillColor=none;align=left;verticalAlign=middle;spacingTop=-1;spacingLeft=3;spacingRight=3;rotatable=0;labelPosition=right;points=[];portConstraint=eastwest;strokeColor=inherit;" vertex="1" parent="24">
                    <mxGeometry y="60" width="180" height="8" as="geometry"/>
                </mxCell>
                <mxCell id="27" value="+ Plataforma()&#10;+ leerPeliculas(): void&#10;+ filtrarPeliCal(float): void&#10;+ mostrarEpi(string): void&#10;+ calificarPeli(string, float): void&#10;+ showMenu(): void" style="text;strokeColor=none;fillColor=none;align=left;verticalAlign=top;spacingLeft=4;spacingRight=4;overflow=hidden;rotatable=0;points=[[0,0.5],[1,0.5]];portConstraint=eastwest;fontStyle=0" vertex="1" parent="24">
                    <mxGeometry y="68" width="180" height="102" as="geometry"/>
                </mxCell>
                <mxCell id="28" value="" style="endArrow=diamondThin;endFill=1;endSize=24;html=1;entryX=0.5;entryY=0;entryDx=0;entryDy=0;exitX=1;exitY=0.5;exitDx=0;exitDy=0;" edge="1" parent="1" target="24">
                    <mxGeometry width="160" relative="1" as="geometry">
                        <mxPoint x="500" y="212" as="sourcePoint"/>
                        <mxPoint x="551.8000000000002" y="300.7639999999999" as="targetPoint"/>
                    </mxGeometry>
                </mxCell>
            </root>
        </mxGraphModel>
    </diagram>
</mxfile>